<svg version="1.1" xmlns="http://www.w3.org/2000/svg" xmlns:xlink="http://www.w3.org/1999/xlink" width="670.17724609375" height="532"><defs/><g><text fill="#eeeeee" stroke="none" font-family="Arial" font-size="24px" font-style="normal" font-weight="normal" text-decoration="none" x="0" y="0">UNREGISTERED</text><text fill="#eeeeee" stroke="none" font-family="Arial" font-size="24px" font-style="normal" font-weight="normal" text-decoration="none" x="0" y="30">UNREGISTERED</text><text fill="#eeeeee" stroke="none" font-family="Arial" font-size="24px" font-style="normal" font-weight="normal" text-decoration="none" x="0" y="60">UNREGISTERED</text><text fill="#eeeeee" stroke="none" font-family="Arial" font-size="24px" font-style="normal" font-weight="normal" text-decoration="none" x="0" y="90">UNREGISTERED</text><text fill="#eeeeee" stroke="none" font-family="Arial" font-size="24px" font-style="normal" font-weight="normal" text-decoration="none" x="0" y="120">UNREGISTERED</text><text fill="#eeeeee" stroke="none" font-family="Arial" font-size="24px" font-style="normal" font-weight="normal" text-decoration="none" x="0" y="150">UNREGISTERED</text><text fill="#eeeeee" stroke="none" font-family="Arial" font-size="24px" font-style="normal" font-weight="normal" text-decoration="none" x="0" y="180">UNREGISTERED</text><text fill="#eeeeee" stroke="none" font-family="Arial" font-size="24px" font-style="normal" font-weight="normal" text-decoration="none" x="0" y="210">UNREGISTERED</text><text fill="#eeeeee" stroke="none" font-family="Arial" font-size="24px" font-style="normal" font-weight="normal" text-decoration="none" x="0" y="240">UNREGISTERED</text><text fill="#eeeeee" stroke="none" font-family="Arial" font-size="24px" font-style="normal" font-weight="normal" text-decoration="none" x="0" y="270">UNREGISTERED</text><text fill="#eeeeee" stroke="none" font-family="Arial" font-size="24px" font-style="normal" font-weight="normal" text-decoration="none" x="0" y="300">UNREGISTERED</text><text fill="#eeeeee" stroke="none" font-family="Arial" font-size="24px" font-style="normal" font-weight="normal" text-decoration="none" x="0" y="330">UNREGISTERED</text><text fill="#eeeeee" stroke="none" font-family="Arial" font-size="24px" font-style="normal" font-weight="normal" text-decoration="none" x="0" y="360">UNREGISTERED</text><text fill="#eeeeee" stroke="none" font-family="Arial" font-size="24px" font-style="normal" font-weight="normal" text-decoration="none" x="0" y="390">UNREGISTERED</text><text fill="#eeeeee" stroke="none" font-family="Arial" font-size="24px" font-style="normal" font-weight="normal" text-decoration="none" x="0" y="420">UNREGISTERED</text><text fill="#eeeeee" stroke="none" font-family="Arial" font-size="24px" font-style="normal" font-weight="normal" text-decoration="none" x="0" y="450">UNREGISTERED</text><text fill="#eeeeee" stroke="none" font-family="Arial" font-size="24px" font-style="normal" font-weight="normal" text-decoration="none" x="0" y="480">UNREGISTERED</text><text fill="#eeeeee" stroke="none" font-family="Arial" font-size="24px" font-style="normal" font-weight="normal" text-decoration="none" x="0" y="510">UNREGISTERED</text><text fill="#eeeeee" stroke="none" font-family="Arial" font-size="24px" font-style="normal" font-weight="normal" text-decoration="none" x="200" y="0">UNREGISTERED</text><text fill="#eeeeee" stroke="none" font-family="Arial" font-size="24px" font-style="normal" font-weight="normal" text-decoration="none" x="200" y="30">UNREGISTERED</text><text fill="#eeeeee" stroke="none" font-family="Arial" font-size="24px" font-style="normal" font-weight="normal" text-decoration="none" x="200" y="60">UNREGISTERED</text><text fill="#eeeeee" stroke="none" font-family="Arial" font-size="24px" font-style="normal" font-weight="normal" text-decoration="none" x="200" y="90">UNREGISTERED</text><text fill="#eeeeee" stroke="none" font-family="Arial" font-size="24px" font-style="normal" font-weight="normal" text-decoration="none" x="200" y="120">UNREGISTERED</text><text fill="#eeeeee" stroke="none" font-family="Arial" font-size="24px" font-style="normal" font-weight="normal" text-decoration="none" x="200" y="150">UNREGISTERED</text><text fill="#eeeeee" stroke="none" font-family="Arial" font-size="24px" font-style="normal" font-weight="normal" text-decoration="none" x="200" y="180">UNREGISTERED</text><text fill="#eeeeee" stroke="none" font-family="Arial" font-size="24px" font-style="normal" font-weight="normal" text-decoration="none" x="200" y="210">UNREGISTERED</text><text fill="#eeeeee" stroke="none" font-family="Arial" font-size="24px" font-style="normal" font-weight="normal" text-decoration="none" x="200" y="240">UNREGISTERED</text><text fill="#eeeeee" stroke="none" font-family="Arial" font-size="24px" font-style="normal" font-weight="normal" text-decoration="none" x="200" y="270">UNREGISTERED</text><text fill="#eeeeee" stroke="none" font-family="Arial" font-size="24px" font-style="normal" font-weight="normal" text-decoration="none" x="200" y="300">UNREGISTERED</text><text fill="#eeeeee" stroke="none" font-family="Arial" font-size="24px" font-style="normal" font-weight="normal" text-decoration="none" x="200" y="330">UNREGISTERED</text><text fill="#eeeeee" stroke="none" font-family="Arial" font-size="24px" font-style="normal" font-weight="normal" text-decoration="none" x="200" y="360">UNREGISTERED</text><text fill="#eeeeee" stroke="none" font-family="Arial" font-size="24px" font-style="normal" font-weight="normal" text-decoration="none" x="200" y="390">UNREGISTERED</text><text fill="#eeeeee" stroke="none" font-family="Arial" font-size="24px" font-style="normal" font-weight="normal" text-decoration="none" x="200" y="420">UNREGISTERED</text><text fill="#eeeeee" stroke="none" font-family="Arial" font-size="24px" font-style="normal" font-weight="normal" text-decoration="none" x="200" y="450">UNREGISTERED</text><text fill="#eeeeee" stroke="none" font-family="Arial" font-size="24px" font-style="normal" font-weight="normal" text-decoration="none" x="200" y="480">UNREGISTERED</text><text fill="#eeeeee" stroke="none" font-family="Arial" font-size="24px" font-style="normal" font-weight="normal" text-decoration="none" x="200" y="510">UNREGISTERED</text><text fill="#eeeeee" stroke="none" font-family="Arial" font-size="24px" font-style="normal" font-weight="normal" text-decoration="none" x="400" y="0">UNREGISTERED</text><text fill="#eeeeee" stroke="none" font-family="Arial" font-size="24px" font-style="normal" font-weight="normal" text-decoration="none" x="400" y="30">UNREGISTERED</text><text fill="#eeeeee" stroke="none" font-family="Arial" font-size="24px" font-style="normal" font-weight="normal" text-decoration="none" x="400" y="60">UNREGISTERED</text><text fill="#eeeeee" stroke="none" font-family="Arial" font-size="24px" font-style="normal" font-weight="normal" text-decoration="none" x="400" y="90">UNREGISTERED</text><text fill="#eeeeee" stroke="none" font-family="Arial" font-size="24px" font-style="normal" font-weight="normal" text-decoration="none" x="400" y="120">UNREGISTERED</text><text fill="#eeeeee" stroke="none" font-family="Arial" font-size="24px" font-style="normal" font-weight="normal" text-decoration="none" x="400" y="150">UNREGISTERED</text><text fill="#eeeeee" stroke="none" font-family="Arial" font-size="24px" font-style="normal" font-weight="normal" text-decoration="none" x="400" y="180">UNREGISTERED</text><text fill="#eeeeee" stroke="none" font-family="Arial" font-size="24px" font-style="normal" font-weight="normal" text-decoration="none" x="400" y="210">UNREGISTERED</text><text fill="#eeeeee" stroke="none" font-family="Arial" font-size="24px" font-style="normal" font-weight="normal" text-decoration="none" x="400" y="240">UNREGISTERED</text><text fill="#eeeeee" stroke="none" font-family="Arial" font-size="24px" font-style="normal" font-weight="normal" text-decoration="none" x="400" y="270">UNREGISTERED</text><text fill="#eeeeee" stroke="none" font-family="Arial" font-size="24px" font-style="normal" font-weight="normal" text-decoration="none" x="400" y="300">UNREGISTERED</text><text fill="#eeeeee" stroke="none" font-family="Arial" font-size="24px" font-style="normal" font-weight="normal" text-decoration="none" x="400" y="330">UNREGISTERED</text><text fill="#eeeeee" stroke="none" font-family="Arial" font-size="24px" font-style="normal" font-weight="normal" text-decoration="none" x="400" y="360">UNREGISTERED</text><text fill="#eeeeee" stroke="none" font-family="Arial" font-size="24px" font-style="normal" font-weight="normal" text-decoration="none" x="400" y="390">UNREGISTERED</text><text fill="#eeeeee" stroke="none" font-family="Arial" font-size="24px" font-style="normal" font-weight="normal" text-decoration="none" x="400" y="420">UNREGISTERED</text><text fill="#eeeeee" stroke="none" font-family="Arial" font-size="24px" font-style="normal" font-weight="normal" text-decoration="none" x="400" y="450">UNREGISTERED</text><text fill="#eeeeee" stroke="none" font-family="Arial" font-size="24px" font-style="normal" font-weight="normal" text-decoration="none" x="400" y="480">UNREGISTERED</text><text fill="#eeeeee" stroke="none" font-family="Arial" font-size="24px" font-style="normal" font-weight="normal" text-decoration="none" x="400" y="510">UNREGISTERED</text><text fill="#eeeeee" stroke="none" font-family="Arial" font-size="24px" font-style="normal" font-weight="normal" text-decoration="none" x="600" y="0">UNREGISTERED</text><text fill="#eeeeee" stroke="none" font-family="Arial" font-size="24px" font-style="normal" font-weight="normal" text-decoration="none" x="600" y="30">UNREGISTERED</text><text fill="#eeeeee" stroke="none" font-family="Arial" font-size="24px" font-style="normal" font-weight="normal" text-decoration="none" x="600" y="60">UNREGISTERED</text><text fill="#eeeeee" stroke="none" font-family="Arial" font-size="24px" font-style="normal" font-weight="normal" text-decoration="none" x="600" y="90">UNREGISTERED</text><text fill="#eeeeee" stroke="none" font-family="Arial" font-size="24px" font-style="normal" font-weight="normal" text-decoration="none" x="600" y="120">UNREGISTERED</text><text fill="#eeeeee" stroke="none" font-family="Arial" font-size="24px" font-style="normal" font-weight="normal" text-decoration="none" x="600" y="150">UNREGISTERED</text><text fill="#eeeeee" stroke="none" font-family="Arial" font-size="24px" font-style="normal" font-weight="normal" text-decoration="none" x="600" y="180">UNREGISTERED</text><text fill="#eeeeee" stroke="none" font-family="Arial" font-size="24px" font-style="normal" font-weight="normal" text-decoration="none" x="600" y="210">UNREGISTERED</text><text fill="#eeeeee" stroke="none" font-family="Arial" font-size="24px" font-style="normal" font-weight="normal" text-decoration="none" x="600" y="240">UNREGISTERED</text><text fill="#eeeeee" stroke="none" font-family="Arial" font-size="24px" font-style="normal" font-weight="normal" text-decoration="none" x="600" y="270">UNREGISTERED</text><text fill="#eeeeee" stroke="none" font-family="Arial" font-size="24px" font-style="normal" font-weight="normal" text-decoration="none" x="600" y="300">UNREGISTERED</text><text fill="#eeeeee" stroke="none" font-family="Arial" font-size="24px" font-style="normal" font-weight="normal" text-decoration="none" x="600" y="330">UNREGISTERED</text><text fill="#eeeeee" stroke="none" font-family="Arial" font-size="24px" font-style="normal" font-weight="normal" text-decoration="none" x="600" y="360">UNREGISTERED</text><text fill="#eeeeee" stroke="none" font-family="Arial" font-size="24px" font-style="normal" font-weight="normal" text-decoration="none" x="600" y="390">UNREGISTERED</text><text fill="#eeeeee" stroke="none" font-family="Arial" font-size="24px" font-style="normal" font-weight="normal" text-decoration="none" x="600" y="420">UNREGISTERED</text><text fill="#eeeeee" stroke="none" font-family="Arial" font-size="24px" font-style="normal" font-weight="normal" text-decoration="none" x="600" y="450">UNREGISTERED</text><text fill="#eeeeee" stroke="none" font-family="Arial" font-size="24px" font-style="normal" font-weight="normal" text-decoration="none" x="600" y="480">UNREGISTERED</text><text fill="#eeeeee" stroke="none" font-family="Arial" font-size="24px" font-style="normal" font-weight="normal" text-decoration="none" x="600" y="510">UNREGISTERED</text><g transform="translate(-126,-38) scale(1,1)"><rect fill="#C0C0C0" stroke="none" x="287" y="55" width="384" height="512" opacity="0.2"/></g><g transform="translate(-126,-38) scale(1,1)"><rect fill="#ffffff" stroke="none" x="280" y="48" width="384" height="512"/></g><g transform="translate(-126,-38) scale(1,1)"><path fill="none" stroke="#000000" d="M 280 48 L 664 48 L 664 560 L 280 560 L 280 48 Z Z" stroke-miterlimit="10"/></g><g transform="translate(-126,-38) scale(1,1)"><g><path fill="none" stroke="none"/><text fill="#000000" stroke="none" font-family="Arial" font-size="13px" font-style="normal" font-weight="bold" text-decoration="none" x="442.016845703125" y="66">daily tech</text></g></g><g transform="translate(-126,-38) scale(1,1)"><path fill="#ffffff" stroke="none" d="M 152.40935031960228 265.68 C 152.40935031960228 260.886167936 156.29519264454774 257 161.088623046875 257 C 165.88205344920226 257 169.76789577414772 260.886167936 169.76789577414772 265.68 C 169.76789577414772 270.473832064 165.88205344920226 274.36 161.088623046875 274.36 C 156.29519264454774 274.36 152.40935031960228 270.473832064 152.40935031960228 265.68 Z"/></g><g transform="translate(-126,-38) scale(1,1)"><path fill="none" stroke="#000000" d="M 152.40935031960228 265.68 C 152.40935031960228 260.886167936 156.29519264454774 257 161.088623046875 257 C 165.88205344920226 257 169.76789577414772 260.886167936 169.76789577414772 265.68 C 169.76789577414772 270.473832064 165.88205344920226 274.36 161.088623046875 274.36 C 156.29519264454774 274.36 152.40935031960228 270.473832064 152.40935031960228 265.68 Z" stroke-miterlimit="10"/></g><g transform="translate(-126,-38) scale(1,1)"><path fill="none" stroke="#000000" d="M 161.088623046875 274.36 L 161.088623046875 291.64" stroke-miterlimit="10"/></g><g transform="translate(-126,-38) scale(1,1)"><path fill="none" stroke="#000000" d="M 151.89880486505683 280.84 L 170.27844122869317 280.84" stroke-miterlimit="10"/></g><g transform="translate(-126,-38) scale(1,1)"><path fill="none" stroke="#000000" d="M 161.088623046875 291.64 L 148.32498668323865 309" stroke-miterlimit="10"/></g><g transform="translate(-126,-38) scale(1,1)"><path fill="none" stroke="#000000" d="M 161.088623046875 291.64 L 173.85225941051135 309" stroke-miterlimit="10"/></g><g transform="translate(-126,-38) scale(1,1)"><g><path fill="none" stroke="none"/><text fill="#000000" stroke="none" font-family="Arial" font-size="13px" font-style="normal" font-weight="bold" text-decoration="none" x="147.358642578125" y="326.5">user</text></g></g><g transform="translate(-126,-38) scale(1,1)"><path fill="#ffffff" stroke="none" d="M 752.4093503196023 241.68 C 752.4093503196023 236.886167936 756.2951926445477 233 761.088623046875 233 C 765.8820534492023 233 769.7678957741477 236.886167936 769.7678957741477 241.68 C 769.7678957741477 246.47383206400002 765.8820534492023 250.36 761.088623046875 250.36 C 756.2951926445477 250.36 752.4093503196023 246.47383206400002 752.4093503196023 241.68 Z"/></g><g transform="translate(-126,-38) scale(1,1)"><path fill="none" stroke="#000000" d="M 752.4093503196023 241.68 C 752.4093503196023 236.886167936 756.2951926445477 233 761.088623046875 233 C 765.8820534492023 233 769.7678957741477 236.886167936 769.7678957741477 241.68 C 769.7678957741477 246.47383206400002 765.8820534492023 250.36 761.088623046875 250.36 C 756.2951926445477 250.36 752.4093503196023 246.47383206400002 752.4093503196023 241.68 Z" stroke-miterlimit="10"/></g><g transform="translate(-126,-38) scale(1,1)"><path fill="none" stroke="#000000" d="M 761.088623046875 250.36 L 761.088623046875 267.64" stroke-miterlimit="10"/></g><g transform="translate(-126,-38) scale(1,1)"><path fill="none" stroke="#000000" d="M 751.8988048650568 256.84 L 770.2784412286932 256.84" stroke-miterlimit="10"/></g><g transform="translate(-126,-38) scale(1,1)"><path fill="none" stroke="#000000" d="M 761.088623046875 267.64 L 748.3249866832386 285" stroke-miterlimit="10"/></g><g transform="translate(-126,-38) scale(1,1)"><path fill="none" stroke="#000000" d="M 761.088623046875 267.64 L 773.8522594105114 285" stroke-miterlimit="10"/></g><g transform="translate(-126,-38) scale(1,1)"><g><path fill="none" stroke="none"/><text fill="#000000" stroke="none" font-family="Arial" font-size="13px" font-style="normal" font-weight="bold" text-decoration="none" x="741.947265625" y="304">admin</text></g></g><g transform="translate(-126,-38) scale(1,1)"><path fill="#C0C0C0" stroke="none" d="M 319 208 C 319 198.6111584 341.8334752 191 370 191 C 398.1665248 191 421 198.6111584 421 208 C 421 217.3888416 398.1665248 225 370 225 C 341.8334752 225 319 217.3888416 319 208 Z" opacity="0.2"/></g><g transform="translate(-126,-38) scale(1,1)"><path fill="#ffffff" stroke="none" d="M 312 201 C 312 191.6111584 334.8334752 184 363 184 C 391.1665248 184 414 191.6111584 414 201 C 414 210.3888416 391.1665248 218 363 218 C 334.8334752 218 312 210.3888416 312 201 Z"/></g><g transform="translate(-126,-38) scale(1,1)"><path fill="none" stroke="#000000" d="M 312 201 C 312 191.6111584 334.8334752 184 363 184 C 391.1665248 184 414 191.6111584 414 201 C 414 210.3888416 391.1665248 218 363 218 C 334.8334752 218 312 210.3888416 312 201 Z" stroke-miterlimit="10"/></g><g transform="translate(-126,-38) scale(1,1)"><g><path fill="none" stroke="none"/><text fill="#000000" stroke="none" font-family="Arial" font-size="13px" font-style="normal" font-weight="bold" text-decoration="none" x="340.234130859375" y="206.5">articles</text></g></g><g transform="translate(-126,-38) scale(1,1)"><path fill="#C0C0C0" stroke="none" d="M 343 416 C 343 406.6111584 365.6096176 399 393.5 399 C 421.3903824 399 444 406.6111584 444 416 C 444 425.3888416 421.3903824 433 393.5 433 C 365.6096176 433 343 425.3888416 343 416 Z" opacity="0.2"/></g><g transform="translate(-126,-38) scale(1,1)"><path fill="#ffffff" stroke="none" d="M 336 409 C 336 399.6111584 358.6096176 392 386.5 392 C 414.3903824 392 437 399.6111584 437 409 C 437 418.3888416 414.3903824 426 386.5 426 C 358.6096176 426 336 418.3888416 336 409 Z"/></g><g transform="translate(-126,-38) scale(1,1)"><path fill="none" stroke="#000000" d="M 336 409 C 336 399.6111584 358.6096176 392 386.5 392 C 414.3903824 392 437 399.6111584 437 409 C 437 418.3888416 414.3903824 426 386.5 426 C 358.6096176 426 336 418.3888416 336 409 Z" stroke-miterlimit="10"/></g><g transform="translate(-126,-38) scale(1,1)"><g><path fill="none" stroke="none"/><text fill="#000000" stroke="none" font-family="Arial" font-size="13px" font-style="normal" font-weight="bold" text-decoration="none" x="370.976806640625" y="414.5">login</text></g></g><g transform="translate(-126,-38) scale(1,1)"><path fill="#C0C0C0" stroke="none" d="M 327 488 C 327 478.6111584 358.7877792 471 398 471 C 437.2122208 471 469 478.6111584 469 488 C 469 497.3888416 437.2122208 505 398 505 C 358.7877792 505 327 497.3888416 327 488 Z" opacity="0.2"/></g><g transform="translate(-126,-38) scale(1,1)"><path fill="#ffffff" stroke="none" d="M 320 481 C 320 471.6111584 351.7877792 464 391 464 C 430.2122208 464 462 471.6111584 462 481 C 462 490.3888416 430.2122208 498 391 498 C 351.7877792 498 320 490.3888416 320 481 Z"/></g><g transform="translate(-126,-38) scale(1,1)"><path fill="none" stroke="#000000" d="M 320 481 C 320 471.6111584 351.7877792 464 391 464 C 430.2122208 464 462 471.6111584 462 481 C 462 490.3888416 430.2122208 498 391 498 C 351.7877792 498 320 490.3888416 320 481 Z" stroke-miterlimit="10"/></g><g transform="translate(-126,-38) scale(1,1)"><g><path fill="none" stroke="none"/><text fill="#000000" stroke="none" font-family="Arial" font-size="13px" font-style="normal" font-weight="bold" text-decoration="none" x="345.119140625" y="486">create account</text></g></g><g transform="translate(-126,-38) scale(1,1)"><path fill="#C0C0C0" stroke="none" d="M 415 120 C 415 110.6111584 434.6994688 103 459 103 C 483.3005312 103 503 110.6111584 503 120 C 503 129.3888416 483.3005312 137 459 137 C 434.6994688 137 415 129.3888416 415 120 Z" opacity="0.2"/></g><g transform="translate(-126,-38) scale(1,1)"><path fill="#ffffff" stroke="none" d="M 408 113 C 408 103.6111584 427.6994688 96 452 96 C 476.3005312 96 496 103.6111584 496 113 C 496 122.3888416 476.3005312 130 452 130 C 427.6994688 130 408 122.3888416 408 113 Z"/></g><g transform="translate(-126,-38) scale(1,1)"><path fill="none" stroke="#000000" d="M 408 113 C 408 103.6111584 427.6994688 96 452 96 C 476.3005312 96 496 103.6111584 496 113 C 496 122.3888416 476.3005312 130 452 130 C 427.6994688 130 408 122.3888416 408 113 Z" stroke-miterlimit="10"/></g><g transform="translate(-126,-38) scale(1,1)"><g><path fill="none" stroke="none"/><text fill="#000000" stroke="none" font-family="Arial" font-size="13px" font-style="normal" font-weight="bold" text-decoration="none" x="433.21728515625" y="118.5">unlike</text></g></g><g transform="translate(-126,-38) scale(1,1)"><path fill="#C0C0C0" stroke="none" d="M 407 296 C 407 286.6111584 424.908608 279 447 279 C 469.091392 279 487 286.6111584 487 296 C 487 305.3888416 469.091392 313 447 313 C 424.908608 313 407 305.3888416 407 296 Z" opacity="0.2"/></g><g transform="translate(-126,-38) scale(1,1)"><path fill="#ffffff" stroke="none" d="M 400 289 C 400 279.6111584 417.908608 272 440 272 C 462.091392 272 480 279.6111584 480 289 C 480 298.3888416 462.091392 306 440 306 C 417.908608 306 400 298.3888416 400 289 Z"/></g><g transform="translate(-126,-38) scale(1,1)"><path fill="none" stroke="#000000" d="M 400 289 C 400 279.6111584 417.908608 272 440 272 C 462.091392 272 480 279.6111584 480 289 C 480 298.3888416 462.091392 306 440 306 C 417.908608 306 400 298.3888416 400 289 Z" stroke-miterlimit="10"/></g><g transform="translate(-126,-38) scale(1,1)"><g><path fill="none" stroke="none"/><text fill="#000000" stroke="none" font-family="Arial" font-size="13px" font-style="normal" font-weight="bold" text-decoration="none" x="429.158203125" y="294.5">like</text></g></g><g transform="translate(-126,-38) scale(1,1)"><path fill="none" stroke="#000000" d="M 434 131 L 381 183" stroke-miterlimit="10" stroke-dasharray="3"/></g><g transform="translate(-126,-38) scale(1,1)"><path fill="none" stroke="#000000" d="M 385.3061098516119 172.877874830558 L 381 183 L 391.20230282394044 178.8874561292775" stroke-miterlimit="10"/></g><g transform="translate(-126,-38) scale(1,1)"><g><path fill="none" stroke="none"/><text fill="#000000" stroke="none" font-family="Arial" font-size="13px" font-style="normal" font-weight="normal" text-decoration="none" x="343.5" y="146">«include»</text></g></g><g transform="translate(-126,-38) scale(1,1)"><path fill="none" stroke="#000000" d="M 424 271 L 379 219" stroke-miterlimit="10" stroke-dasharray="3"/></g><g transform="translate(-126,-38) scale(1,1)"><path fill="none" stroke="#000000" d="M 388.83332358349384 223.9300859325476 L 379 219 L 382.4671125927533 229.4393069822269" stroke-miterlimit="10"/></g><g transform="translate(-126,-38) scale(1,1)"><g><path fill="none" stroke="none"/><text fill="#000000" stroke="none" font-family="Arial" font-size="13px" font-style="normal" font-weight="normal" text-decoration="none" x="343.5" y="259">«include»</text></g></g><g transform="translate(-126,-38) scale(1,1)"><path fill="#C0C0C0" stroke="none" d="M 495 271 C 495 257.7451648 529.0263552 247 571 247 C 612.9736448 247 647 257.7451648 647 271 C 647 284.2548352 612.9736448 295 571 295 C 529.0263552 295 495 284.2548352 495 271 Z" opacity="0.2"/></g><g transform="translate(-126,-38) scale(1,1)"><path fill="#ffffff" stroke="none" d="M 488 264 C 488 250.7451648 522.0263552 240 564 240 C 605.9736448 240 640 250.7451648 640 264 C 640 277.2548352 605.9736448 288 564 288 C 522.0263552 288 488 277.2548352 488 264 Z"/></g><g transform="translate(-126,-38) scale(1,1)"><path fill="none" stroke="#000000" d="M 488 264 C 488 250.7451648 522.0263552 240 564 240 C 605.9736448 240 640 250.7451648 640 264 C 640 277.2548352 605.9736448 288 564 288 C 522.0263552 288 488 277.2548352 488 264 Z" stroke-miterlimit="10"/></g><g transform="translate(-126,-38) scale(1,1)"><g><path fill="none" stroke="none"/><text fill="#000000" stroke="none" font-family="Arial" font-size="13px" font-style="normal" font-weight="bold" text-decoration="none" x="514.86279296875" y="269.5">manage articles</text></g></g><g transform="translate(-126,-38) scale(1,1)"><path fill="#C0C0C0" stroke="none" d="M 463 184 C 463 174.6111584 478.4461744 167 497.5 167 C 516.5538256 167 532 174.6111584 532 184 C 532 193.3888416 516.5538256 201 497.5 201 C 478.4461744 201 463 193.3888416 463 184 Z" opacity="0.2"/></g><g transform="translate(-126,-38) scale(1,1)"><path fill="#ffffff" stroke="none" d="M 456 177 C 456 167.6111584 471.4461744 160 490.5 160 C 509.5538256 160 525 167.6111584 525 177 C 525 186.3888416 509.5538256 194 490.5 194 C 471.4461744 194 456 186.3888416 456 177 Z"/></g><g transform="translate(-126,-38) scale(1,1)"><path fill="none" stroke="#000000" d="M 456 177 C 456 167.6111584 471.4461744 160 490.5 160 C 509.5538256 160 525 167.6111584 525 177 C 525 186.3888416 509.5538256 194 490.5 194 C 471.4461744 194 456 186.3888416 456 177 Z" stroke-miterlimit="10"/></g><g transform="translate(-126,-38) scale(1,1)"><g><path fill="none" stroke="none"/><text fill="#000000" stroke="none" font-family="Arial" font-size="13px" font-style="normal" font-weight="bold" text-decoration="none" x="477.864990234375" y="182.5">Add</text></g></g><g transform="translate(-126,-38) scale(1,1)"><path fill="#C0C0C0" stroke="none" d="M 447 360 C 447 350.6111584 476.3253456 343 512.5 343 C 548.6746544 343 578 350.6111584 578 360 C 578 369.3888416 548.6746544 377 512.5 377 C 476.3253456 377 447 369.3888416 447 360 Z" opacity="0.2"/></g><g transform="translate(-126,-38) scale(1,1)"><path fill="#ffffff" stroke="none" d="M 440 353 C 440 343.6111584 469.3253456 336 505.5 336 C 541.6746544 336 571 343.6111584 571 353 C 571 362.3888416 541.6746544 370 505.5 370 C 469.3253456 370 440 362.3888416 440 353 Z"/></g><g transform="translate(-126,-38) scale(1,1)"><path fill="none" stroke="#000000" d="M 440 353 C 440 343.6111584 469.3253456 336 505.5 336 C 541.6746544 336 571 343.6111584 571 353 C 571 362.3888416 541.6746544 370 505.5 370 C 469.3253456 370 440 362.3888416 440 353 Z" stroke-miterlimit="10"/></g><g transform="translate(-126,-38) scale(1,1)"><g><path fill="none" stroke="none"/><text fill="#000000" stroke="none" font-family="Arial" font-size="13px" font-style="normal" font-weight="bold" text-decoration="none" x="463.602294921875" y="358.5">Edit or Delete</text></g></g><g transform="translate(-126,-38) scale(1,1)"><path fill="none" stroke="#000000" d="M 735 270 L 641 267" stroke-miterlimit="10"/></g><g transform="translate(-126,-38) scale(1,1)"><path fill="none" stroke="#000000" d="M 187 308 L 350 391" stroke-miterlimit="10"/></g><g transform="translate(-126,-38) scale(1,1)"><path fill="none" stroke="#000000" d="M 187 316 L 369 463" stroke-miterlimit="10"/></g><g transform="translate(-126,-38) scale(1,1)"><path fill="none" stroke="#000000" d="M 505 195 L 543 239" stroke-miterlimit="10" stroke-dasharray="3"/></g><g transform="translate(-126,-38) scale(1,1)"><path fill="none" stroke="#000000" d="M 533.1716138878245 234.06007829717961 L 543 239 L 539.5433336665559 228.55722939736611" stroke-miterlimit="10"/></g><g transform="translate(-126,-38) scale(1,1)"><g><path fill="none" stroke="none"/><text fill="#000000" stroke="none" font-family="Arial" font-size="13px" font-style="normal" font-weight="normal" text-decoration="none" x="527.5" y="211">«include»</text></g></g><g transform="translate(-126,-38) scale(1,1)"><path fill="none" stroke="#000000" d="M 517 335 L 547 289" stroke-miterlimit="10" stroke-dasharray="3"/></g><g transform="translate(-126,-38) scale(1,1)"><path fill="none" stroke="#000000" d="M 544.974394841125 299.8118880747231 L 547 289 L 537.9225214810864 295.2128402312196" stroke-miterlimit="10"/></g><g transform="translate(-126,-38) scale(1,1)"><g><path fill="none" stroke="none"/><text fill="#000000" stroke="none" font-family="Arial" font-size="13px" font-style="normal" font-weight="normal" text-decoration="none" x="535.5" y="322">«include»</text></g></g><g transform="translate(-126,-38) scale(1,1)"><path fill="none" stroke="#000000" d="M 187 283 L 324 219" stroke-miterlimit="10"/></g></g></svg>